<?xml version="1.0" encoding="utf-8"?>
<!-- Generator: Adobe Illustrator 19.1.0, SVG Export Plug-In . SVG Version: 6.00 Build 0)  -->
<svg version="1.1" id="Layer_1" xmlns="http://www.w3.org/2000/svg" xmlns:xlink="http://www.w3.org/1999/xlink" x="0px" y="0px"
	 viewBox="0 0 150 100" style="enable-background:new 0 0 150 100;" xml:space="preserve">
<g>
	<path d="M28.8,44.8c0,1.9-0.9,3.7-3.2,4.7c2.9,0.9,3.9,3.9,3.9,5.5c0,5.5-4.1,7.2-9.2,7.2c-3.9,0-7.8,0-11.7,0V37.7
		c3.9,0,7.8,0,11.7,0C25.2,37.7,28.8,39.9,28.8,44.8z M13.3,47.6h7.1c2.9,0,3.9-1.2,3.9-2.6c0-1.1-0.9-3-3.9-3h-7.1V47.6z M13.3,58
		h7.1c1.9,0,4.6-0.6,4.6-2.9c0-2.2-2.7-3.4-4.6-3.4h-7.1V58z"/>
	<path d="M57.3,50.1c-0.1,6.4-4,12.7-12.6,12.7s-12.6-6.2-12.6-12.7s4.1-13,12.6-13C53.2,37.2,57.4,43.7,57.3,50.1z M36.7,50.2
		c0.1,4,2.3,8.4,8.1,8.4s8-4.4,8-8.4c0.1-4.1-2.2-8.8-8-8.8S36.6,46.1,36.7,50.2z"/>
	<path d="M86.2,62.3h-3.9l-3.1-7.7l-2.6-7.8l-2.6,7.8l-3,7.7h-3.9l-9-24.6h5.2l5.8,17.7l6-17.7h3l6.1,17.7l5.6-17.7H95L86.2,62.3z"
		/>
	<path d="M136.7,37.7h4.6v24.6h-2.9v0l-12.9-16.6v16.6h-4.6V37.7h3.8l12,15.2V37.7z"/>
	<g>
		<rect x="97.8" y="37.7" width="18.4" height="4.5"/>
		<rect x="97.8" y="57.8" width="18.4" height="4.5"/>
		<rect x="97.8" y="47.8" width="18.4" height="4.5"/>
	</g>
</g>
</svg>
